<svg width="94" height="94" viewBox="0 0 94 94" fill="none" xmlns="http://www.w3.org/2000/svg">
<rect width="94" height="94" rx="8" fill="#774FD1"/>
<path d="M60.083 23H34.317C27.4604 23 24 26.4283 24 33.2188V69.5618C24 70.4519 24.4642 71 25.4642 71H33.2528C34.1849 71 34.7849 70.4519 34.7849 69.5618V68.182C34.7849 64.8159 36.1623 62.9812 39.5849 62.6275H60.083C67.6038 62.6275 71 59.2692 71 51.9306V33.6969C71 26.3583 67.6038 23 60.083 23ZM60.2264 48.8444C60.2264 52.8246 59.3509 53.6447 54.7547 53.6447H43.8377C39.2453 53.6447 36.3132 55.2229 34.7811 58.3091V35.893C34.7811 32.8068 35.5132 31.9828 39.1736 31.9828H54.7547C59.3509 31.9828 60.2264 32.8068 60.2264 36.7831V48.8444Z" fill="white"/>
</svg>
